<svg width="42" height="33" viewBox="0 0 42 33" fill="none" xmlns="http://www.w3.org/2000/svg">
<path fill-rule="evenodd" clip-rule="evenodd" d="M16.5141 25.3979L13.9012 28.0109C15.9567 29.2128 18.3432 29.8922 20.9039 29.8922C23.4472 29.8922 25.8511 29.2128 27.9066 28.0109L25.2937 25.3979C23.9698 26.025 22.4717 26.3734 20.9039 26.3734C19.3361 26.356 17.8555 26.0076 16.5141 25.3979ZM7.38621 0L14.9289 7.54273C11.4276 10.0163 9.80755 14.4061 10.8527 18.552C11.0095 19.1965 11.236 19.8062 11.5147 20.3985L8.90173 23.0114C8.58817 22.4714 8.30946 21.914 8.06558 21.3391C6.16684 16.7578 6.88104 11.4447 9.91207 7.52531L7.40364 5.01688C2.21256 11.3751 2.21256 20.6598 7.40364 27.018C11.8979 22.5237 16.4096 18.012 20.9039 13.5177C25.3982 18.012 29.9099 22.5237 34.4042 27.018C39.5952 20.6598 39.5952 11.3751 34.4042 5.01688L31.8957 7.52531C34.9442 11.4622 35.641 16.7578 33.7248 21.3391C33.4809 21.914 33.2022 22.4714 32.8887 23.0114L30.2757 20.3985C30.5544 19.8062 30.7635 19.1965 30.9377 18.552C31.9828 14.3887 30.3628 10.0163 26.8614 7.54273L34.4216 0C44.2463 8.29178 44.316 23.656 34.4216 32.0174C29.9099 27.5057 25.4156 23.0114 20.9039 18.4997C16.3922 23.0114 11.8979 27.5057 7.38621 32.0174C-2.50818 23.6734 -2.42108 8.29178 7.38621 0Z" fill="#29313D" fill-opacity="0.8"/>
</svg>
